<svg width="386" height="101" viewBox="0 0 386 101" xmlns="http://www.w3.org/2000/svg"><g id="svgGroup" stroke-linecap="round" fill-rule="nonzero" font-size="9pt" stroke="#000" stroke-width="0" fill="#818cf8" style="stroke:#000;stroke-width:0;fill:#818cf8"><path d="M 124.6 101 L 109.6 101 L 109.6 28 L 124.1 28 L 124.1 38.5 L 127.6 38.5 L 124.1 42 Q 124.1 34.9 128 30.95 Q 131.9 27 138.7 27 Q 147 27 152 32.85 Q 157 38.7 157 48.5 L 157 62.5 Q 157 69 154.75 73.85 Q 152.5 78.7 148.4 81.35 Q 144.3 84 138.7 84 Q 131.9 84 128 80.05 Q 124.1 76.1 124.1 69 L 127.6 72.5 L 124.1 72.5 L 124.6 86 L 124.6 101 Z M 142 62 L 142 49 Q 142 44.6 139.75 42.3 Q 137.5 40 133.3 40 Q 129.2 40 126.9 42.35 Q 124.6 44.7 124.6 49 L 124.6 62 Q 124.6 66.3 126.9 68.65 Q 129.2 71 133.3 71 Q 137.5 71 139.75 68.65 Q 142 66.3 142 62 Z M 314.4 101 L 298.7 101 L 306.2 80.3 L 285.6 28 L 301.9 28 L 310.2 52 Q 311.1 54.7 312.05 58.55 Q 313 62.4 313.5 64.8 Q 314 62.4 314.95 58.55 Q 315.9 54.7 316.8 52 L 324.8 28 L 340.4 28 L 314.4 101 Z M 30.5 94 L 0 94 L 0 0 L 30.5 0 L 30.5 14 L 15 14 L 15 80 L 30.5 80 L 30.5 94 Z M 386 94 L 355.5 94 L 355.5 80 L 371 80 L 371 14 L 355.5 14 L 355.5 0 L 386 0 L 386 94 Z M 279.5 83 L 262 83 Q 256.2 83 251.8 80.55 Q 247.4 78.1 244.95 73.7 Q 242.5 69.3 242.5 63.5 L 242.5 23.5 L 225.5 23.5 L 225.5 10 L 257.5 10 L 257.5 63.5 Q 257.5 66.2 259.15 67.85 Q 260.8 69.5 263.5 69.5 L 279.5 69.5 L 279.5 83 Z M 169 62 L 169 49 Q 169 42.4 171.95 37.45 Q 174.9 32.5 180.3 29.75 Q 185.7 27 193 27 Q 200.4 27 205.75 29.75 Q 211.1 32.5 214.05 37.45 Q 217 42.4 217 49 L 217 62 Q 217 68.6 214.05 73.55 Q 211.1 78.5 205.75 81.25 Q 200.4 84 193 84 Q 185.7 84 180.3 81.25 Q 174.9 78.5 171.95 73.55 Q 169 68.6 169 62 Z M 202 62 L 202 49 Q 202 44.6 199.7 42.3 Q 197.4 40 193 40 Q 188.7 40 186.35 42.3 Q 184 44.6 184 49 L 184 62 Q 184 66.3 186.35 68.65 Q 188.7 71 193 71 Q 197.4 71 199.7 68.65 Q 202 66.3 202 62 Z M 78.6 58.5 L 67.4 58.5 L 65.1 25 L 65.1 10 L 80.9 10 L 80.9 25 L 78.6 58.5 Z M 74.4 83.5 L 71.5 83.5 Q 68.1 83.5 66.05 81.55 Q 64 79.6 64 76.5 Q 64 73.3 66.05 71.4 Q 68.1 69.5 71.5 69.5 L 74.5 69.5 Q 77.9 69.5 79.95 71.4 Q 82 73.3 82 76.5 Q 82 79.7 79.95 81.6 Q 77.9 83.5 74.4 83.5 Z" vector-effect="non-scaling-stroke"/></g></svg>