<svg width="130.2" height="90.4" viewBox="0 0 130.2 90.4" xmlns="http://www.w3.org/2000/svg">
  <defs>
    <linearGradient id="blueGradient" x1="0%" y1="0%" x2="100%" y2="100%">
      <stop offset="0%" style="stop-color:#818cf8;stop-opacity:1" />
      <stop offset="100%" style="stop-color:#4338ca;stop-opacity:1" />
    </linearGradient>
  </defs>
  <g id="svgGroup" stroke-linecap="round" fill-rule="nonzero" font-size="9pt" stroke="#000" stroke-width="0" fill="url(#blueGradient)" style="stroke:#000;stroke-width:0;fill:url(#blueGradient)">
    <path d="M 0 90.4 L 0 0 L 43.4 0 L 43.4 18 L 25 18 L 25 72.4 L 43.4 72.4 L 43.4 90.4 L 0 90.4 Z M 86.8 90.4 L 86.8 72.4 L 105.2 72.4 L 105.2 18 L 86.8 18 L 86.8 0 L 130.2 0 L 130.2 90.4 L 86.8 90.4 Z M 54.4 43.9 L 51.6 0 L 78.6 0 L 75.6 43.9 L 54.4 43.9 Z M 52 71.4 L 52 49 L 78.2 49 L 78.2 71.4 L 52 71.4 Z" vector-effect="non-scaling-stroke"/>
  </g>
</svg>